<?xml version="1.0" encoding="utf-8"?>
<!-- Generator: Adobe Illustrator 26.5.0, SVG Export Plug-In . SVG Version: 6.00 Build 0)  -->
<svg version="1.1" id="Layer_1" xmlns="http://www.w3.org/2000/svg" xmlns:xlink="http://www.w3.org/1999/xlink" x="0px" y="0px"
	 viewBox="0 0 512 512" style="enable-background:new 0 0 512 512;" xml:space="preserve">
<style type="text/css">
	.st0{fill:#005DAA;}
</style>
<g id="XMLID_31_">
	<polygon id="XMLID_33_" class="st0" points="491.42,225.13 487.64,225.13 487.64,223.59 496.9,223.59 496.9,225.13 493.11,225.13 
		493.11,235.8 491.42,235.8 	"/>
	<polygon id="XMLID_37_" class="st0" points="498.72,223.59 501.53,223.59 505.46,233.69 509.24,223.59 512.05,223.59 512.05,235.8 
		510.37,235.8 510.37,225.27 510.23,225.27 506.3,235.8 504.47,235.8 500.54,225.27 500.4,225.27 500.4,235.8 498.72,235.8 	"/>
	<rect id="XMLID_38_" x="75.68" y="223.31" class="st0" width="17.4" height="64.82"/>
	<path id="XMLID_41_" class="st0" d="M195.65,223.45h21.33l25.12,65.25h-19.08l-4.91-13.89h-24.41l-5.19,13.89h-17.68L195.65,223.45
		 M206.31,236.92h-0.14l-8.42,25.54h16.28L206.31,236.92"/>
	<path id="XMLID_45_" class="st0" d="M250.51,223.45h30.03c12.07,0,21.19,5.33,21.19,16.56c0,8.28-4.21,12.77-11.51,15.29v0.14
		c8.7,1.82,13.19,6.45,13.19,14.45c0,15.57-13.75,18.8-25.4,18.8h-27.5L250.51,223.45 M267.91,276.35h5.19
		c6.31,0,12.91-0.98,12.91-7.58c0-7.16-6.88-7.72-12.77-7.72h-5.33L267.91,276.35 M267.91,249.26h4.91c5.75,0,11.65-1.4,11.65-6.88
		c0-6.03-5.61-6.59-11.37-6.59h-5.05v13.47"/>
	<polyline id="XMLID_46_" class="st0" points="326.84,264 302.84,223.45 322.77,223.45 335.54,249.55 348.17,223.45 368.23,223.45 
		344.24,264 344.24,288.69 326.84,288.69 326.84,264 	"/>
	<polyline id="XMLID_48_" class="st0" points="391.38,236.36 375.39,236.36 375.39,223.45 424.78,223.45 424.78,236.36 
		408.78,236.36 408.78,288.69 391.38,288.69 391.38,236.36 	"/>
	<polyline id="XMLID_49_" class="st0" points="433.05,223.45 479.08,223.45 479.08,235.8 450.45,235.8 450.45,249.26 477.39,249.26 
		477.39,261.47 450.45,261.47 450.45,276.35 480.06,276.35 480.06,288.69 433.05,288.69 433.05,223.45 	"/>
	<path id="XMLID_50_" class="st0" d="M36.25,237.76c-11.51,0.98-17.82,8.56-17.82,18.38c0,9.54,8.84,17.54,17.4,17.54h1.82h3.23
		c0,0,2.1,0,2.1-2.1v-20.49h17.82c0,11.51,0,37.6,0,37.6s-17.54,0-27.78,0c-19.22,0-32.97-15.86-32.97-32.55
		c0-17.96,14.87-33.11,33.53-32.41l26.66,0.14v13.89L36.25,237.76"/>
	<path id="XMLID_54_" class="st0" d="M139.52,237.76c-11.51,0.98-17.82,8.56-17.82,18.38c0,9.54,8.84,17.54,17.4,17.54h1.82h3.23
		c0,0,2.1,0,2.1-2.1v-20.49h17.82c0,11.51,0,37.6,0,37.6s-17.54,0-27.78,0c-19.22,0-32.97-15.86-32.97-32.55
		c0-17.96,14.87-33.11,33.53-32.41l26.66,0.14v13.89L139.52,237.76"/>
</g>
</svg>
